<svg xmlns="http://www.w3.org/2000/svg" xmlns:xlink="http://www.w3.org/1999/xlink" id="layer" x="0" y="0" version="1.1" viewBox="0 0 652 652" xml:space="preserve"><style type="text/css">.st0{fill:#bdbdbd}</style><path d="M43,395.3H20V248.5l23,1.5V395.3z M69.2,258.7c7.2,0,13.2,6,13.2,13.2c0,7.3-5.9,13.2-13.2,13.2	c-7.2,0-13.2-6-13.2-13.2S61.9,258.7,69.2,258.7L69.2,258.7z M80.7,395.3h-23V290.6l23,1.3V395.3z M135.6,311.7v23.1h-17.3v60.4h-23	V280.4c0-17.5,14.5-33.4,31.6-33.4c5.8,0,10.4,1.7,11.5,2.4l-0.9,22.2h-10.6c-4.6,0-8.5,3.9-8.5,8.8v31.3L135.6,311.7L135.6,311.7z M144.9,321c0-17.5,14.1-31.9,31.7-31.9c17.4,0,31.5,14.3,31.5,31.9v22.4c0,6.5-5.2,11.5-11.5,11.5h-28.8V365c0,4.8,3.9,8.8,8.7,8.8	h22.1l0.7,19.6l-20.8,3.2c-20,3.4-33.8-14-33.8-31.5L144.9,321L144.9,321z M167.9,331.8h17.2V321c0-4.8-3.9-8.8-8.5-8.8	c-4.8,0-8.7,3.9-8.7,8.8V331.8z M227.9,395.3V249.4h14.8v44.3c4.1-1.3,10.6-1.9,15-1.9c15.8,0,28,14.3,28,30.6v72.8h-14.5v-72.8	c0-8-6.5-14.4-14.5-14.4h-14.1v87.2L227.9,395.3L227.9,395.3z M340.1,320c0-8.4-3.9-15.1-14.5-14h0.2c-5.9,0.2-13.5,0.9-19.9,1.3	c-0.2-5.4-0.4-7.5-0.6-11.6c5-1.9,12.2-3.7,18.4-3.9c18.6-0.4,30.8,14.7,30.8,30.9v44.3c0,16-12.8,29.2-28.8,29.2	c-16,0-29.1-13.2-29.1-29.2v-9.1c0-16,10.9-28.1,29.1-28.1c6.9,0,10.4,0.7,14.3,1.9L340.1,320L340.1,320z M340.1,367.2V342h-14.3	c-8,0-14.3,6.3-14.3,14.3v10.8c0,8,6.3,14.5,14.3,14.5C333.8,381.7,340.1,375.2,340.1,367.2L340.1,367.2z M396.2,291.9	c16,0,29.1,13,29.1,29.2v1.9c-5.7,0.2-10.4,0.2-14.7,0.4v-2.2c0-7.8-6.5-14.3-14.5-14.3c-7.8,0-14.1,6.5-14.1,14.3v46.6	c0,8.2,6.3,14.3,14.1,14.3c7.8,0,14.3-6,14.5-13.8c7.2,0.6,14.1,0.9,14.7,0.9c-0.7,15.4-13.7,27.8-29.1,27.8c-16,0-29-13-29-29.2	v-46.6C367.2,305,380.2,291.9,396.2,291.9z M437,249.8h14.8v145.5H437V249.8z M483.8,395.3l-28.2-49.4c-2.8-4.8-2.8-5.4,0.6-11.2	l24.9-41.4h16.9l-28,47.7l30.3,54.2C500.1,395.3,483.8,395.3,483.8,395.3z M503.2,321.4c0-16.2,13-29.4,29.1-29.4	c16,0,28.9,13.2,28.9,29.4v22.9c0,4.3-3.3,7.5-7.4,7.5h-35.8v15.8c0,8,6.3,14.5,14.3,14.5h18.7c0.2,4.8,0.4,8.2,0.8,11.5l-17.8,2.8	c-18.2,3.2-30.8-12.7-30.8-28.9L503.2,321.4L503.2,321.4z M518.1,337h28.6v-15.7c0-8-6.5-14.5-14.3-14.5c-8,0-14.3,6.5-14.3,14.5	L518.1,337L518.1,337z M589.2,395.3h-14.8v-72.7c0-16.2,12.6-31.3,31.2-30.9c6.3,0.2,10.2,1.7,14.5,3.7c-0.2,4.5-0.4,8.2-0.6,11.6	l-16.1-0.4c-7.8,0-14.1,8.4-14.1,16L589.2,395.3L589.2,395.3z" class="st0"/></svg>