<svg xmlns="http://www.w3.org/2000/svg" xmlns:xlink="http://www.w3.org/1999/xlink" width="125.12" height="37.152"><path fill="#000" d="M1.58 7.39L1.58 29.42L5.42 29.42L5.42 21.56L7.29 21.56C12.30 21.56 15.50 19.24 15.50 14.36C15.50 9.92 12.52 7.39 7.32 7.39ZM7.32 18.58L5.42 18.58L5.42 10.37L7.45 10.37C10.14 10.37 11.60 11.60 11.60 14.36C11.60 17.24 9.99 18.58 7.32 18.58ZM21.49 19.46C22.54 17.53 24.09 16.55 26.41 16.67L26.41 13.12C24.25 13.25 22.48 14.55 21.59 16.64L21.49 16.64L21.40 13.47L17.72 13.47L17.72 29.42L21.49 29.42ZM39.91 18.54C39.91 14.68 37.94 13.22 33.95 13.22C31.45 13.22 29.48 14.01 28.34 14.68L28.34 17.82C29.35 17.05 31.57 16.23 33.51 16.23C35.31 16.23 36.14 16.86 36.14 18.58L36.14 19.46L35.54 19.46C29.77 19.46 27.20 21.37 27.20 24.60C27.20 27.83 29.16 29.64 32.08 29.64C34.30 29.64 35.25 28.91 35.98 28.15L36.14 28.15C36.17 28.56 36.30 29.10 36.42 29.42L40.10 29.42C39.97 28.12 39.91 26.82 39.91 25.52ZM36.14 25.61C35.66 26.31 34.77 26.88 33.44 26.88C31.86 26.88 31.07 25.99 31.07 24.63C31.07 22.82 32.37 22.16 35.60 22.16L36.14 22.16ZM49.80 29.73C51.54 29.73 52.78 29.42 53.70 28.75L53.70 25.68C52.75 26.34 51.61 26.75 50.02 26.75C47.33 26.75 46.22 24.66 46.22 21.37C46.22 17.91 47.58 16.14 50.05 16.14C51.51 16.14 52.94 16.64 53.70 17.12L53.70 13.92C52.91 13.47 51.51 13.16 49.64 13.16C44.82 13.16 42.32 16.61 42.32 21.46C42.32 26.79 44.76 29.73 49.80 29.73ZM54.97 13.47L54.97 16.45L56.96 16.45L56.96 24.63C56.96 27.61 58.64 29.73 62.13 29.73C63.97 29.73 65.02 29.32 65.02 29.32L65.02 26.25C65.02 26.25 64.32 26.75 63.05 26.75C61.47 26.75 60.74 25.84 60.74 24.66L60.74 16.45L64.70 16.45L64.70 13.47L60.74 13.47L60.74 9.99L56.96 9.99L56.96 13.47ZM68.79 11.51C70.03 11.51 71.01 10.65 71.01 9.29C71.01 7.96 70.03 7.07 68.79 7.07C67.55 7.07 66.60 7.96 66.60 9.29C66.60 10.65 67.55 11.51 68.79 11.51ZM66.92 13.47L66.92 29.42L70.69 29.42L70.69 13.47ZM80.71 29.73C82.45 29.73 83.69 29.42 84.61 28.75L84.61 25.68C83.66 26.34 82.52 26.75 80.93 26.75C78.24 26.75 77.13 24.66 77.13 21.37C77.13 17.91 78.49 16.14 80.96 16.14C82.42 16.14 83.85 16.64 84.61 17.12L84.61 13.92C83.81 13.47 82.42 13.16 80.55 13.16C75.73 13.16 73.23 16.61 73.23 21.46C73.23 26.79 75.67 29.73 80.71 29.73ZM95.86 24.92C95.16 25.77 94.05 26.50 92.69 26.50C91.36 26.50 90.76 25.93 90.76 24.73L90.76 13.47L86.98 13.47L86.98 25.11C86.98 28.28 88.25 29.67 91.33 29.67C93.58 29.67 94.91 28.85 95.67 28.09L95.86 28.09L95.96 29.42L99.63 29.42L99.63 13.47L95.86 13.47ZM106.58 17.97C107.27 17.12 108.22 16.39 109.59 16.39C110.92 16.39 111.36 16.96 111.36 18.16L111.36 29.42L115.13 29.42L115.13 17.97C115.83 17.12 116.78 16.39 118.15 16.39C119.48 16.39 119.92 16.96 119.92 18.16L119.92 29.42L123.69 29.42L123.69 17.78C123.69 14.61 122.58 13.22 119.51 13.22C117.07 13.22 115.61 14.17 114.72 15.25C114.12 13.85 112.85 13.22 110.79 13.22C108.54 13.22 107.53 14.04 106.77 14.80L106.58 14.80L106.48 13.47L102.80 13.47L102.80 29.42L106.58 29.42Z"/></svg>