<?xml version="1.0" encoding="utf-8"?>
<!-- Generator: Adobe Illustrator 16.0.4, SVG Export Plug-In . SVG Version: 6.00 Build 0)  -->
<!DOCTYPE svg PUBLIC "-//W3C//DTD SVG 1.1//EN" "http://www.w3.org/Graphics/SVG/1.1/DTD/svg11.dtd">
<svg version="1.1" id="Isolation_Mode" xmlns="http://www.w3.org/2000/svg" xmlns:xlink="http://www.w3.org/1999/xlink" x="0px"
	 y="0px" width="92.084px" height="42.104px" viewBox="0 0 92.084 42.104" enable-background="new 0 0 92.084 42.104"
	 xml:space="preserve">
<g>
	<path fill="#BDBDBD" d="M79.837,10.145h-4.902C73.39,4.312,68.067,0,61.754,0C55.652,0,50.475,4.029,48.74,9.565
		c-1.751-0.602-3.645-0.602-5.395,0C41.611,4.029,36.434,0,30.332,0c-6.313,0-11.636,4.312-13.181,10.145h-4.903v2.764h4.469
		c-0.013,0.24-0.02,0.482-0.02,0.727c0,7.518,6.116,13.635,13.635,13.635c7.518,0,13.634-6.117,13.634-13.635
		c0-0.447-0.023-0.889-0.065-1.325c1.374-0.574,2.911-0.574,4.285,0c-0.043,0.437-0.065,0.878-0.065,1.325
		c0,7.518,6.116,13.635,13.634,13.635c7.519,0,13.635-6.117,13.635-13.635c0-0.244-0.006-0.486-0.019-0.727h4.467V10.145z
		 M30.332,24.506c-5.995,0-10.872-4.877-10.872-10.871c0-5.995,4.877-10.871,10.872-10.871c5.993,0,10.871,4.876,10.871,10.871
		C41.203,19.629,36.325,24.506,30.332,24.506z M61.754,24.506c-5.994,0-10.871-4.877-10.871-10.871
		c0-5.995,4.877-10.871,10.871-10.871c5.995,0,10.872,4.876,10.872,10.871C72.626,19.629,67.749,24.506,61.754,24.506z"/>
	<g>
		<g>
			<g>
				<path fill="#BDBDBD" d="M3.469,40.943c-1.617,0-2.243-1.13-2.254-2.216c-0.008-1.094,0.674-2.271,2.254-2.271
					c0.57,0,1.15,0.196,1.58,0.618l0.822-0.795c-0.674-0.664-1.514-1-2.402-1c-2.366,0-3.479,1.739-3.469,3.448
					c0.009,1.703,1.038,3.377,3.469,3.377c0.944,0,1.813-0.309,2.487-0.973l-0.842-0.851C4.685,40.711,4.039,40.943,3.469,40.943z"
					/>
				<path fill="#BDBDBD" d="M11.069,39.168c0,1.122-0.58,1.805-1.6,1.805c-1.018,0-1.691-0.625-1.691-1.805v-3.75H6.553v3.75
					c0,1.973,1.337,2.928,2.909,2.928c1.645,0,2.831-0.992,2.831-2.928v-3.75h-1.224V39.168z"/>
				<polygon fill="#BDBDBD" points="14.732,35.408 13.499,35.408 13.499,41.955 18.099,41.955 18.099,40.814 14.732,40.814 				"/>
				<path fill="#BDBDBD" d="M17.611,35.408v1.123h2.076v5.424h1.233v-5.424h2.077v-1.123C21.1,35.408,19.5,35.408,17.611,35.408z"/>
			</g>
			<g>
				<path fill="#BDBDBD" d="M28.38,35.307c-2.206,0-3.301,1.608-3.301,3.365c0,1.73,1.102,3.396,3.301,3.396
					c2.197,0,3.291-1.655,3.3-3.377C31.689,36.924,30.586,35.307,28.38,35.307z M28.38,41.6c-1.86,0-2.795-1.44-2.805-2.918
					c-0.011-1.541,0.926-2.907,2.805-2.907s2.814,1.394,2.814,2.907C31.194,40.159,30.25,41.6,28.38,41.6z"/>
				<polygon fill="#BDBDBD" points="37.279,35.915 37.279,35.408 32.876,35.408 32.876,41.965 33.38,41.965 33.38,39 37.149,39
					37.149,38.523 33.38,38.523 33.38,35.915 				"/>
			</g>
			<g>
				<path fill="#BDBDBD" d="M43.08,35.4c-1.028,0-2.057,0.008-3.085,0.008v6.547h1.235v-1.927h1.85
					C46.288,40.028,46.279,35.4,43.08,35.4z M43.08,38.897h-1.85v-2.319h1.85C44.651,36.578,44.661,38.897,43.08,38.897z"/>
				<path fill="#BDBDBD" d="M46.298,41.955h4.896v-1.217h-3.673v-1.477h3.542v-1.149h-3.542v-1.506h3.673v-1.198h-4.896
					C46.298,37.588,46.298,39.775,46.298,41.955z"/>
				<path fill="#BDBDBD" d="M54.636,35.408c-0.805,0-1.767,0-2.572,0v6.547c0.806,0,1.768,0,2.572,0c2.291,0,3.3-1.674,3.271-3.33
					C57.879,37.009,56.88,35.408,54.636,35.408z M54.636,40.768h-1.348v-4.189h1.348c1.42,0,2.019,1.02,2.047,2.039
					C56.711,39.683,56.121,40.768,54.636,40.768z"/>
				<path fill="#BDBDBD" d="M60.983,35.408l-2.937,6.547h1.337l0.562-1.234h3.422l0.552,1.234h1.346l-2.937-6.547H60.983z
					 M60.44,39.57l1.216-2.787l1.215,2.787H60.44z"/>
				<path fill="#BDBDBD" d="M68.525,39.271h1.674v1.159c-0.515,0.411-0.962,0.523-1.477,0.523c-1.627,0-2.254-1.113-2.254-2.188
					c0-1.347,0.851-2.413,2.254-2.413c0.571,0,1.226,0.235,1.665,0.655l0.766-0.786c-0.672-0.664-1.551-1-2.431-1
					c-2.31,0-3.459,1.701-3.459,3.544c0,1.72,1,3.338,3.459,3.338c1.15,0,1.964-0.441,2.608-1.179v-2.758h-2.806V39.271z"/>
				<path fill="#BDBDBD" d="M75.416,35.279c-2.263,0-3.366,1.729-3.366,3.448c0,1.723,1.065,3.377,3.366,3.377
					c2.299,0,3.337-1.692,3.356-3.385C78.792,37.009,77.669,35.279,75.416,35.279z M75.416,40.973c-1.544,0-2.123-1.149-2.15-2.226
					c-0.028-1.104,0.606-2.347,2.15-2.347c1.542,0,2.158,1.233,2.141,2.338C77.537,39.813,76.958,40.973,75.416,40.973z"/>
				<path fill="#BDBDBD" d="M82.679,39.271h1.674v1.159c-0.514,0.411-0.963,0.523-1.477,0.523c-1.627,0-2.254-1.113-2.254-2.188
					c0-1.347,0.851-2.413,2.254-2.413c0.569,0,1.226,0.235,1.663,0.655l0.768-0.786c-0.674-0.664-1.552-1-2.431-1
					c-2.311,0-3.459,1.701-3.459,3.544c0,1.72,0.999,3.338,3.459,3.338c1.15,0,1.963-0.441,2.607-1.179v-2.758h-2.805V39.271z"/>
				<polygon fill="#BDBDBD" points="90.598,35.408 88.858,38.112 87.194,35.408 85.726,35.408 85.726,35.466 88.241,39.252
					88.241,41.955 89.477,41.955 89.477,39.252 92.084,35.466 92.084,35.408 				"/>
			</g>
		</g>
	</g>
</g>
</svg>
