<svg xmlns="http://www.w3.org/2000/svg" xmlns:xlink="http://www.w3.org/1999/xlink" style="enable-background:new -153 -46 652 652" id="layer" x="0" y="0" version="1.1" viewBox="-153 -46 652 652" xml:space="preserve"><style type="text/css">.st0{fill:#ffffff00}.st1,.st2{fill:#bdbdbd}.st2,.st3{clip-path:url(#SVGID_2_)}.st3{fill:#ffffff00}</style><rect width="600" height="255.4" x="-131.5" y="147.1" class="st0"/><polygon points="366.4 290.5 388.9 290.5 377.7 251.8" class="st1"/><g><defs><rect id="SVGID_1_" width="600" height="255.4" x="-131.5" y="147.1"/></defs><clipPath id="SVGID_2_"><use style="overflow:visible" xlink:href="#SVGID_1_"/></clipPath><path d="M218.2,239.5h-6.5V310h6.2c9.3,0,17.3-2.9,23-8.4c6.5-6.2,9.7-15.2,9.7-26.8 C250.6,253,238.2,239.5,218.2,239.5" class="st2"/><path d="M451.4,147.1h-565.7h-17.1v17.3v220.9v17.3h17.1h565.7h17.1v-17.3V164.3v-17.3H451.4z M465.9,165.6v218.3v15.9 H450h-562.9h-15.9v-15.9V165.6v-15.9h15.9H450h15.9V165.6z" class="st3"/></g><g><path d="M-112.9,384.1H94.5V165.6h-207.5V384.1z M-9.2,360.1c-47.1,0-85.3-38.2-85.3-85.3c0-47.1,38.2-85.3,85.3-85.3 c47.1,0,85.3,38.2,85.3,85.3C76.1,321.9,37.9,360.1-9.2,360.1" class="st1"/><rect width="39.9" height="82.8" x="-29.1" y="256.3" class="st1"/><path d="M11.7,230.2c0,10.8-9.4,19.5-20.9,19.5c-11.6,0-20.9-8.7-20.9-19.5c0-10.8,9.4-19.5,20.9-19.5 C2.4,210.6,11.7,219.4,11.7,230.2" class="st1"/><path d="M110.9,383.9H450V165.5H110.9V383.9z M131.6,339.5v-0.6V210.1h33.2v128.8v0.6h-0.6h-32.1H131.6z M435.4,339.5 h-30.8h-0.4l-0.1-0.4l-7.1-21.9h-39l-7.5,21.9l-0.1,0.4H350h-20.9h-0.6h-9.1h-0.8h-55.8h-0.6v-0.6V324 c-10.7,10-24.2,15.5-38.5,15.5h-42.6h-0.6v-0.6V210.7v-0.6h0.6h42.6c14.3,0,27.8,5.4,38.5,15.4v-14.8v-0.6h0.6h65.8h0.6v0.6v28.2 v0.6h-0.6h-35.2v20.2h33.3h0.6v0.6v28.2v0.6h-0.6h-33.3V310h35l33.2-99.6l0.1-0.4h0.4h31.5h0.4l0.1,0.4L436,338.7l0.3,0.8H435.4z" class="st1"/></g></svg>